<svg xmlns="http://www.w3.org/2000/svg" viewBox="0 0 284.8 64"><defs><style>.cls-1{font-size:45px;fill:#4a4a4a;font-family:Foco-Bold, Foco;font-weight:700;}.cls-2{fill:#1194f6;}.cls-3{fill:#fff;}</style></defs><title>logo</title><g id="Layer_2" data-name="Layer 2"><g id="Layer_1-2" data-name="Layer 1"><text class="cls-1" transform="translate(75.96 46.97)">Gitriculum</text><circle class="cls-2" cx="32" cy="32" r="32"/><path class="cls-3" d="M42.54,37V29.64H25v21.6a12.51,12.51,0,0,0,4.1,3,25.84,25.84,0,0,0,6.09,2.09,34,34,0,0,0,7.16.72A23.48,23.48,0,0,0,54.7,54a19.27,19.27,0,0,0,7.67-8.71A32,32,0,0,0,65,31.8a30.32,30.32,0,0,0-2.81-13.54,19.63,19.63,0,0,0-8-8.64A25,25,0,0,0,41.67,6.67a23.37,23.37,0,0,0-7.52,1.19,17.43,17.43,0,0,0-5.65,2.91c-1.4,1.15-2.09,2.31-2.09,3.46a4.94,4.94,0,0,0,1,2.63,13.91,13.91,0,0,0,2.56,2.84,19.11,19.11,0,0,1,5.65-3.78,15.85,15.85,0,0,1,5.94-1.12q6.55,0,10,4.36t3.42,12.49q0,8.51-3.49,13T41.31,49.22A13.5,13.5,0,0,1,36,48.29a8.35,8.35,0,0,1-1.65-1V37Z"/></g></g></svg>